<svg id="Layer_1" data-name="Layer 1" xmlns="http://www.w3.org/2000/svg" viewBox="0 0 512 512"><defs><style>.cls-1{fill:#d9e4e8;}.cls-2{fill:#79d3d3;}.cls-3{fill:#141f38;}.cls-4{fill:#f4607f;}.cls-5{opacity:0.14;}.cls-6{fill:#17292d;}</style></defs><title>planets_style_3</title><path class="cls-1" d="M172.8,499.2c-88.23,0-160-71.77-160-160s71.77-160,160-160,160,71.77,160,160S261,499.2,172.8,499.2Z"/><path class="cls-2" d="M182.6,241.07c0,.1-.05.17-.08.24a10.2,10.2,0,0,1-1.18,2c-.6.85-1.21,1.67-1.81,2.49-5.88,8.15-12,16.28-19.2,23.47-3.16,3.14-6.58,6.4-10.88,8.2a7.5,7.5,0,0,1-4.49.66,7.7,7.7,0,0,1-3.4-2.09c-.77-.72-1.55-1.41-2.27-2.18a52.37,52.37,0,0,1-4.21-5.15A106.1,106.1,0,0,1,127.82,257q-2.44-4.47-4.57-9.07c-.1-.22-.19-.45-.3-.66a1.23,1.23,0,0,1-.16-.31,8.06,8.06,0,0,1-.37-.85c-.05,0-.05-.1-.08-.14a6.71,6.71,0,0,1-.37-2.2,7.42,7.42,0,0,1,5.44-7l1.31-.31c8.54-2.08,21.41-3.9,33-7.45,3.65-1.11,7.62-2,11.48-1.5a10.48,10.48,0,0,1,7.43,4.09C182.39,234.08,183.6,238.24,182.6,241.07Z"/><path class="cls-3" d="M146.09,291a17.78,17.78,0,0,1-4-.45,20.36,20.36,0,0,1-9.21-5.15l-.53-.49c-.81-.75-1.62-1.51-2.38-2.32a65.43,65.43,0,0,1-5.24-6.4,117.31,117.31,0,0,1-8.15-13.07q-2.48-4.58-4.68-9.24l-.38-.34-1.26-3.36a19.41,19.41,0,0,1-1.08-6.42,20.16,20.16,0,0,1,14.44-19.19l2-.5c3.35-.82,7.17-1.57,11.32-2.39A214.45,214.45,0,0,0,158,216.79c4.07-1.24,10.26-2.79,16.81-2A23.1,23.1,0,0,1,191,224.11c3.45,4.92,6.38,13.24,3.69,21.07l-.17.5a22.91,22.91,0,0,1-2.68,4.87l-2,2.79c-5.95,8.24-12.49,17-20.51,25-3.25,3.22-8.16,8.07-15,10.92A21.5,21.5,0,0,1,146.09,291Zm-8.72-43.33q.83,1.61,1.69,3.21a91.65,91.65,0,0,0,6.36,10.24c.64.89,1.31,1.76,2,2.6,1.22-1,2.51-2.24,3.88-3.59a160.16,160.16,0,0,0,16.05-19.41c-.82.21-1.51.41-1.9.53a235.72,235.72,0,0,1-23.63,5.53Z"/><path class="cls-2" d="M86.76,474.09A159.93,159.93,0,0,1,39.57,250.65a42.42,42.42,0,0,1,5-.3,44.27,44.27,0,0,1,27.25,79.16l-.69.48-1.51,1.18s-1.72,1.49-2.21,1.93c-1,.91-1.93,1.85-2.84,2.83s-1.82,2-2.66,3.09-1.57,2-2.32,3.15-1.45,2.24-2.1,3.39-1.32,2.45-1.89,3.67S54.53,351.69,54,353s-.89,2.58-1.26,3.89-.71,2.7-1,4.07-.48,2.71-.63,4.14-.26,2.81-.29,4.25l0,1.38A51,51,0,0,0,69.71,410.3a55.54,55.54,0,0,1,17,63.79Z"/><path class="cls-2" d="M228.66,430.64a33.16,33.16,0,0,1-33.14-33.09c0-44.34,4.39-66.2,5.27-70.13l.09-.41c.78-2.48,2.69-4.48,5.56-4.48a10.31,10.31,0,0,1,1.74.18l31.57,6.14c3.07.58,6.14,1.16,9.18,1.86l2.08.51a49.52,49.52,0,0,0,12.28,1.91,30.3,30.3,0,0,0,3.28-.18,31.33,31.33,0,0,0-3.45-62.46H228.81a5.76,5.76,0,0,1-5.75-5.75,5.53,5.53,0,0,1,1.28-3.46l.12-.16a5.7,5.7,0,0,1,.68-.68l.64-.6L272,213.66A160.24,160.24,0,0,1,329,373.92a45.28,45.28,0,0,0-67.53,28.26l-.17.65c-.2.84-.35,1.62-.46,2.38A33.28,33.28,0,0,1,228.66,430.64Z"/><path class="cls-3" d="M336.33,395.17c.27-.8.54-1.61.8-2.41.15-.45.3-.91.44-1.36.24-.77.48-1.54.71-2.31q.23-.75.45-1.5.33-1.13.64-2.27.22-.79.43-1.59.3-1.12.58-2.24c.14-.55.27-1.11.41-1.67.18-.73.35-1.47.52-2.21.13-.59.26-1.18.39-1.77s.31-1.43.46-2.15.29-1.5.43-2.25q.3-1.61.58-3.23c.13-.77.26-1.54.38-2.31.09-.61.18-1.23.27-1.84s.22-1.49.31-2.24.15-1.23.23-1.85.18-1.52.26-2.28q.1-.91.18-1.82.11-1.17.21-2.35c0-.59.1-1.19.14-1.78.06-.83.11-1.65.16-2.48,0-.56.07-1.11.09-1.67,0-.93.08-1.85.11-2.78,0-.47,0-.93,0-1.4q.05-2.1.05-4.21c0-1.69,0-3.38-.08-5.06,0-.53,0-1-.06-1.57q-.07-1.76-.17-3.51-.05-.87-.11-1.74-.12-1.74-.27-3.47c0-.52-.09-1-.14-1.56q-.22-2.25-.49-4.49c0-.15,0-.29-.05-.44q-.32-2.5-.71-5c-.06-.39-.13-.78-.19-1.17q-.31-1.89-.65-3.77c-.09-.48-.18-1-.27-1.43q-.35-1.82-.75-3.63c-.09-.42-.18-.83-.27-1.24q-.51-2.28-1.08-4.54l-.05-.21q-.64-2.51-1.35-5l-.1-.33q-.65-2.23-1.35-4.43l-.27-.84q-.66-2-1.37-4.06l-.24-.69q-2.59-7.25-5.8-14.2l0,0q-1.08-2.34-2.23-4.65h0A172.84,172.84,0,0,0,4.08,301.75l0,.11q-1,4.48-1.74,9c-.06.37-.12.73-.18,1.1-.12.76-.23,1.51-.34,2.27q-.12.84-.24,1.69c-.09.68-.18,1.36-.27,2s-.17,1.45-.25,2.18c-.06.55-.13,1.1-.18,1.65q-.19,1.86-.33,3.74c0,.45-.06.91-.09,1.36q-.1,1.35-.17,2.7,0,.73-.07,1.47-.06,1.38-.11,2.77c0,.43,0,.86,0,1.29,0,1.35-.05,2.69-.05,4,0,1.85,0,3.69.1,5.53,0,.52,0,1,.06,1.55q.09,2.16.23,4.32c0,.43.05.86.08,1.29q.2,2.72.48,5.41c0,.34.08.68.12,1q.25,2.24.55,4.46.1.73.2,1.45.36,2.48.78,4.93l.07.41c.32,1.8.67,3.58,1,5.36.08.39.17.78.25,1.17q.48,2.2,1,4.38c.08.35.17.69.25,1q.67,2.68,1.43,5.33l0,.13c.49,1.7,1,3.39,1.55,5.07l.31,1q.82,2.51,1.71,5l0,.1q1,2.69,2,5.33l.15.36q1,2.45,2.05,4.87l.19.44q2.3,5.2,4.94,10.22l.09.16A172.85,172.85,0,0,0,336,396.13Zm-16.39-51.95c0,.52,0,1-.06,1.55,0,.81-.06,1.61-.1,2.41s-.08,1.33-.13,2-.08,1.26-.14,1.9-.13,1.53-.2,2.29q-.07.75-.15,1.5c0,.43-.1.85-.15,1.28A58.06,58.06,0,0,0,249.09,399l-.19.74-.08.33-.07.33c-.13.58-.29,1.35-.44,2.25a20.33,20.33,0,0,1-40-5.14c0-31.95,2.29-51.55,3.8-61l7.83,1.52.41.08,4.23.81c2.53.49,5.06,1,7.59,1.48,1.7.34,3.41.66,5.12,1,2.92.55,5.84,1.1,8.72,1.77l1.93.47a61.07,61.07,0,0,0,15.36,2.29,42.82,42.82,0,0,0,4.65-.25,44.12,44.12,0,0,0-4.83-88H246l26.58-26.58a148.21,148.21,0,0,1,27.31,34l.68,1.16c.24.43.48.86.72,1.28.4.72.8,1.43,1.19,2.16l.32.6c.51,1,1,1.93,1.51,2.91l0,0a147,147,0,0,1,15.58,61.92c0,.06,0,.13,0,.19q.05,1.93.05,3.86C320,340.54,320,341.89,319.94,343.22ZM61.8,420.37a42.5,42.5,0,0,1,16,31.15,147.47,147.47,0,0,1-47.38-75l-.17-.63c-.2-.76-.38-1.52-.56-2.29-.12-.52-.25-1-.37-1.55s-.28-1.26-.41-1.89-.28-1.31-.41-2-.22-1.12-.32-1.68q-.21-1.1-.4-2.21-.13-.78-.26-1.55-.19-1.17-.36-2.35c-.07-.49-.14-1-.21-1.48-.11-.81-.21-1.63-.3-2.44-.06-.48-.11-1-.17-1.45-.09-.83-.17-1.67-.24-2.5,0-.47-.09-.94-.13-1.41-.07-.86-.12-1.72-.18-2.58,0-.45-.06-.91-.09-1.36,0-.92-.08-1.85-.11-2.77,0-.4,0-.79,0-1.19q-.05-2-.05-4c0-1.51,0-3,.08-4.53,0-.47,0-.94.05-1.41q.06-1.59.16-3.18c0-.52.06-1,.1-1.55q.13-1.83.31-3.66c.06-.62.13-1.25.2-1.87.11-1,.23-2,.36-3,.09-.72.2-1.44.3-2.16s.2-1.36.31-2,.26-1.62.4-2.42c.07-.42.16-.83.24-1.25q.52-2.78,1.14-5.53l.17-.74q.37-1.58.77-3.14l.15-.57a146.24,146.24,0,0,1,13-32.87l.12-.22q.79-1.45,1.61-2.88l.31-.53q.69-1.2,1.41-2.38a31.47,31.47,0,0,1,17.61,55.86l-.79.57-.87.69-.4.29c-.63.48-1.24,1-1.85,1.53s-1.13,1-1.72,1.53c-1.23,1.13-2.41,2.3-3.53,3.51S53,329.67,51.95,331s-2,2.65-3,4-1.82,2.81-2.65,4.28-1.6,3-2.31,4.49-1.38,3.12-2,4.7-1.13,3.25-1.59,4.89-.88,3.37-1.2,5-.6,3.47-.79,5.19-.32,3.54-.37,5.29q0,.9,0,1.8A63.86,63.86,0,0,0,61.8,420.37Zm111,66a146.29,146.29,0,0,1-70.92-18.25,68.3,68.3,0,0,0-24.07-67.76,38.24,38.24,0,0,1-14.13-29.68q0-.54,0-1.08,0-1.59.22-3.18t.47-3.1q.3-1.52.72-3t1-2.92q.53-1.43,1.17-2.81t1.39-2.69q.74-1.31,1.59-2.56T72,346.92q.94-1.17,2-2.27t2.13-2.11q.55-.51,1.12-1c.21-.18.4-.36.62-.53s.46-.33.68-.5.38-.32.57-.47.42-.28.62-.44a57.06,57.06,0,0,0-16.24-98.84,147,147,0,0,1,188.77-25.46l-35.5,35.5a18.57,18.57,0,0,0-1.91,1.91s-.58.58-.54.66a18.31,18.31,0,0,0-4,11.36,18.52,18.52,0,0,0,18.55,18.55h34.31a18.53,18.53,0,0,1,2,36.94,17.18,17.18,0,0,1-1.86.1c-3.89,0-7.73-1.22-11.48-2.09-4.83-1.13-9.75-2-14.62-2.93-4-.8-8-1.55-12-2.32l-15-2.91a23.15,23.15,0,0,0-3.81-.36,18.6,18.6,0,0,0-17.84,13.57s-.1.36-.25,1c0,.1-.05.2-.05.3-1.22,5.44-5.59,28.16-5.59,72.93a45.93,45.93,0,0,0,90.77,9.91,12.76,12.76,0,0,1,.25-1.47c.05-.2.1-.41.15-.56a32.49,32.49,0,0,1,40-24.18C295.74,442,239.36,486.4,172.8,486.4Z"/><path class="cls-1" d="M409.6,192a89.6,89.6,0,1,1,89.6-89.6A89.7,89.7,0,0,1,409.6,192Z"/><path class="cls-3" d="M409.6,0A102.4,102.4,0,1,0,512,102.4,102.4,102.4,0,0,0,409.6,0ZM482,128H435.2a12.8,12.8,0,0,0,0,25.6h31.59a76.76,76.76,0,0,1-132.92-38.4H358.4a12.8,12.8,0,0,0,0-25.6H333.87a75.62,75.62,0,0,1,3.32-12.8H384a12.8,12.8,0,0,0,0-25.6H352.41A76.76,76.76,0,0,1,485.33,89.6H460.8a12.8,12.8,0,1,0,0,25.6h24.53A75.62,75.62,0,0,1,482,128Z"/><path class="cls-1" d="M38.4,64A25.6,25.6,0,1,1,64,38.4,25.62,25.62,0,0,1,38.4,64Z"/><path class="cls-3" d="M38.4,25.6A12.8,12.8,0,1,1,25.6,38.4,12.81,12.81,0,0,1,38.4,25.6M38.4,0A38.4,38.4,0,1,0,76.8,38.4,38.41,38.41,0,0,0,38.4,0Z"/><path class="cls-4" d="M460.8,320a25.6,25.6,0,1,1,25.6-25.6A25.62,25.62,0,0,1,460.8,320Z"/><path class="cls-3" d="M460.8,281.6A12.8,12.8,0,1,1,448,294.4a12.81,12.81,0,0,1,12.8-12.8m0-25.6a38.4,38.4,0,1,0,38.4,38.4A38.41,38.41,0,0,0,460.8,256Z"/><circle class="cls-3" cx="198.4" cy="83.2" r="19.2"/><circle class="cls-3" cx="403.2" cy="428.8" r="19.2"/><g class="cls-5"><path class="cls-6" d="M226.68,175A172.78,172.78,0,0,1,42.12,452.19,172.78,172.78,0,1,0,226.68,175Z"/></g><g class="cls-5"><path class="cls-6" d="M426.61,1.53a102.05,102.05,0,0,1-98,163.35,102.33,102.33,0,1,0,98-163.35Z"/></g></svg>